<?xml version="1.0" encoding="UTF-8"?>
<svg id="Calque_1" data-name="Calque 1" xmlns="http://www.w3.org/2000/svg" viewBox="0 0 163.61 156.41">
  <defs>
    <style>
      .cls-1 {
        fill: red;
      }
    </style>
  </defs>
  <path class="cls-1" d="m113.35,56.36c1.69,1.69,2.53,3.91,2.53,6.13s-.84,4.44-2.53,6.12l-24.97,24.97c-3.37,3.37-8.88,3.37-12.25,0-1.69-1.69-2.53-3.91-2.53-6.13s.84-4.44,2.53-6.12l24.97-24.97c3.37-3.37,8.88-3.37,12.25,0Z"/>
  <path class="cls-1" d="m88.49,81.33c3.37,3.37,3.37,8.88,0,12.25-1.69,1.69-3.91,2.53-6.13,2.53s-4.44-.84-6.13-2.53l-24.96-24.97c-3.37-3.37-3.37-8.88,0-12.25,1.69-1.69,3.91-2.53,6.13-2.53s4.44.84,6.12,2.53l24.97,24.97Z"/>
  <path class="cls-1" d="m163.36,88.6v33.99c0,4.13-3.37,7.5-7.5,7.5s-7.5-3.37-7.5-7.5v-33.99c0-2.07.84-3.94,2.2-5.3s3.24-2.2,5.3-2.2c4.13,0,7.5,3.37,7.5,7.5Z"/>
  <path class="cls-1" d="m38.27,75.83v58.33c0,4.4-3.6,8-8,8s-8-3.6-8-8v-58.33c0-4.4,3.6-8,8-8,2.2,0,4.2.9,5.65,2.35s2.35,3.45,2.35,5.65Z"/>
  <path class="cls-1" d="m142.46,75.83v58.33c0,4.4-3.6,8-8,8s-8-3.6-8-8v-58.33c0-4.4,3.6-8,8-8,2.2,0,4.2.9,5.65,2.35s2.35,3.45,2.35,5.65Z"/>
  <path class="cls-1" d="m15.25,88v33.99c0,4.13-3.37,7.5-7.5,7.5S.25,126.12.25,121.99v-33.99c0-2.06.84-3.93,2.2-5.29s3.24-2.21,5.3-2.21c4.13,0,7.5,3.38,7.5,7.5Z"/>
  <path class="cls-1" d="m67.27,64v82c0,5.59-4.58,10.16-10.17,10.16s-10.17-4.57-10.17-10.16V64c0-5.6,4.58-10.17,10.17-10.17,2.8,0,5.34,1.14,7.18,2.98,1.84,1.85,2.99,4.39,2.99,7.19Z"/>
  <path class="cls-1" d="m117.97,64v82c0,5.59-4.58,10.16-10.17,10.16s-10.16-4.57-10.16-10.16V64c0-5.6,4.57-10.17,10.16-10.17,2.8,0,5.34,1.14,7.18,2.98,1.84,1.85,2.99,4.39,2.99,7.19Z"/>
</svg>